<?xml version="1.0" encoding="UTF-8"?>
<svg id="Capa_1" data-name="Capa 1" xmlns="http://www.w3.org/2000/svg" viewBox="0 0 800 231.7">
  <defs>
    <style>
      .cls-1 {
        fill: gray;
      }
    </style>
  </defs>
  <path class="cls-1" d="m5.21,180.67v-89.03h111.16v-5.21H5.21V5.21h118.19V0H0v185.88h124.44v-5.21H5.21ZM224.67,52.07l-46.08,60.66-45.04-60.66h-6.77l48.68,64.56-53.37,69.25h6.25l50.24-65.34,50.5,65.34h6.51l-53.63-69.25,48.94-64.56h-6.25Zm26.55,179.63v-83.31h.52c3.12,12.15,9.29,21.91,18.48,29.29,9.2,7.38,20.91,11.06,35.14,11.06,9.2,0,17.36-1.87,24.47-5.6s13.06-8.81,17.83-15.23c4.77-6.42,8.42-13.88,10.93-22.39,2.52-8.5,3.77-17.44,3.77-26.81,0-10.07-1.3-19.35-3.9-27.86-2.6-8.5-6.38-15.88-11.32-22.13s-10.93-11.11-17.96-14.58c-7.03-3.47-14.97-5.21-23.82-5.21-6.77,0-13.06,1-18.87,2.99-5.81,2-10.98,4.82-15.49,8.46-4.51,3.64-8.42,7.94-11.71,12.89-3.3,4.95-5.81,10.37-7.55,16.27h-.52v-37.49h-5.21v179.63h5.21Zm54.15-47.9c-16.31,0-29.42-5.6-39.31-16.79-9.89-11.19-14.84-27.29-14.84-48.29,0-8.68,1.21-16.92,3.64-24.73s5.94-14.67,10.54-20.57c4.6-5.9,10.28-10.59,17.05-14.06,6.77-3.47,14.4-5.21,22.91-5.21s16.27,1.74,22.78,5.21c6.51,3.47,11.89,8.2,16.14,14.19,4.25,5.99,7.46,12.84,9.63,20.57,2.17,7.72,3.25,15.92,3.25,24.6,0,7.81-1,15.58-2.99,23.3-2,7.72-5.08,14.67-9.24,20.83-4.17,6.16-9.5,11.19-16.01,15.1-6.51,3.9-14.36,5.86-23.56,5.86h0Zm85.65,2.08v-75.76c0-7.29,1.04-14.41,3.12-21.35s5.29-13.06,9.63-18.35c4.34-5.29,9.85-9.46,16.53-12.5,6.68-3.04,14.62-4.3,23.82-3.77v-5.21c-7.98-.17-14.97.69-20.96,2.6-5.99,1.91-11.15,4.51-15.49,7.81-4.34,3.3-7.81,7.16-10.41,11.58-2.6,4.43-4.51,9.15-5.73,14.19h-.52v-33.06h-5.21v133.81h5.21Zm59.62-65.86h111.94c.35-9.2-.56-18.05-2.73-26.55-2.17-8.5-5.64-16.05-10.41-22.65-4.77-6.6-10.93-11.89-18.48-15.88s-16.53-5.99-26.94-5.99c-7.46,0-14.75,1.56-21.87,4.69s-13.36,7.68-18.74,13.67-9.72,13.32-13.02,22-4.95,18.57-4.95,29.68c0,9.89,1.13,19.13,3.38,27.73,2.26,8.59,5.73,16.05,10.41,22.39,4.69,6.33,10.72,11.24,18.09,14.71,7.38,3.47,16.27,5.12,26.68,4.95,15.27,0,28.12-4.3,38.53-12.89s16.57-20.7,18.48-36.32h-5.21c-2.26,14.75-8.03,25.82-17.31,33.19s-20.96,11.06-35.01,11.06c-9.55,0-17.62-1.65-24.21-4.95-6.6-3.3-11.98-7.81-16.14-13.54-4.17-5.73-7.25-12.45-9.24-20.18-2-7.72-3.08-16.1-3.25-25.12h0Zm106.74-5.21h-106.74c.52-9.37,2.26-17.79,5.21-25.25,2.95-7.46,6.81-13.84,11.58-19.13,4.77-5.29,10.33-9.33,16.66-12.11,6.33-2.78,13.15-4.17,20.44-4.17,8.68,0,16.31,1.61,22.91,4.82,6.6,3.21,12.11,7.59,16.53,13.15,4.43,5.55,7.77,12.02,10.02,19.39,2.26,7.38,3.38,15.14,3.38,23.3h0Zm113.24-23.17h5.21c0-14.93-4.34-25.77-13.02-32.54s-20.48-10.15-35.41-10.15c-8.33,0-15.36,1.04-21.09,3.12-5.73,2.08-10.41,4.77-14.06,8.07s-6.25,6.94-7.81,10.93c-1.56,3.99-2.34,7.81-2.34,11.45,0,7.29,1.3,13.1,3.9,17.44s6.68,7.72,12.24,10.15c3.82,1.74,8.16,3.3,13.02,4.69s10.5,2.86,16.92,4.43c5.73,1.39,11.37,2.78,16.92,4.17,5.55,1.39,10.46,3.25,14.71,5.6s7.72,5.34,10.41,8.98c2.69,3.64,4.04,8.42,4.04,14.32s-1.35,10.59-4.04,14.58c-2.69,3.99-6.12,7.25-10.28,9.76-4.17,2.52-8.81,4.34-13.93,5.47-5.12,1.13-10.11,1.69-14.97,1.69-15.79,0-27.9-3.51-36.32-10.54s-12.63-18.09-12.63-33.19h-5.21c0,16.83,4.56,29.16,13.67,36.97,9.11,7.81,22.61,11.71,40.48,11.71,5.73,0,11.5-.65,17.31-1.95,5.81-1.3,11.02-3.43,15.62-6.38,4.6-2.95,8.33-6.77,11.19-11.45,2.86-4.69,4.3-10.41,4.3-17.18s-1.26-11.63-3.77-15.62c-2.52-3.99-5.81-7.29-9.89-9.89-4.08-2.6-8.68-4.64-13.8-6.12-5.12-1.48-10.28-2.91-15.49-4.3-7.29-1.91-13.67-3.56-19.13-4.95-5.47-1.39-10.54-3.04-15.23-4.95-4.51-1.91-8.11-4.64-10.8-8.2-2.69-3.56-4.04-8.63-4.04-15.23,0-1.21.35-3.38,1.04-6.51s2.34-6.29,4.95-9.5c2.6-3.21,6.6-6.07,11.98-8.59s12.76-3.77,22.13-3.77c6.42,0,12.28.69,17.57,2.08,5.29,1.39,9.85,3.6,13.67,6.64,3.82,3.04,6.77,6.9,8.85,11.58s3.12,10.41,3.12,17.18h0Zm120.53,0h5.21c0-14.93-4.34-25.77-13.02-32.54-8.68-6.77-20.48-10.15-35.41-10.15-8.33,0-15.36,1.04-21.09,3.12-5.73,2.08-10.41,4.77-14.06,8.07s-6.25,6.94-7.81,10.93c-1.56,3.99-2.34,7.81-2.34,11.45,0,7.29,1.3,13.1,3.9,17.44s6.68,7.72,12.24,10.15c3.82,1.74,8.16,3.3,13.02,4.69,4.86,1.39,10.5,2.86,16.92,4.43,5.73,1.39,11.37,2.78,16.92,4.17,5.55,1.39,10.46,3.25,14.71,5.6,4.25,2.34,7.72,5.34,10.41,8.98,2.69,3.64,4.04,8.42,4.04,14.32s-1.35,10.59-4.04,14.58c-2.69,3.99-6.12,7.25-10.28,9.76-4.17,2.52-8.81,4.34-13.93,5.47s-10.11,1.69-14.97,1.69c-15.79,0-27.9-3.51-36.32-10.54-8.42-7.03-12.63-18.09-12.63-33.19h-5.21c0,16.83,4.56,29.16,13.67,36.97,9.11,7.81,22.61,11.71,40.48,11.71,5.73,0,11.5-.65,17.31-1.95s11.02-3.43,15.62-6.38c4.6-2.95,8.33-6.77,11.19-11.45,2.86-4.69,4.3-10.41,4.3-17.18s-1.26-11.63-3.77-15.62c-2.52-3.99-5.81-7.29-9.89-9.89-4.08-2.6-8.68-4.64-13.8-6.12-5.12-1.48-10.28-2.91-15.49-4.3-7.29-1.91-13.67-3.56-19.13-4.95s-10.54-3.04-15.23-4.95c-4.51-1.91-8.11-4.64-10.8-8.2-2.69-3.56-4.04-8.63-4.04-15.23,0-1.21.35-3.38,1.04-6.51s2.34-6.29,4.95-9.5,6.6-6.07,11.98-8.59c5.38-2.52,12.76-3.77,22.13-3.77,6.42,0,12.28.69,17.57,2.08,5.29,1.39,9.85,3.6,13.67,6.64,3.82,3.04,6.77,6.9,8.85,11.58,2.08,4.69,3.12,10.41,3.12,17.18h0Z"/>
</svg>