<?xml version="1.0" encoding="utf-8"?>
<!-- Generator: Adobe Illustrator 27.6.1, SVG Export Plug-In . SVG Version: 6.00 Build 0)  -->
<svg version="1.1" id="Capa_1" xmlns="http://www.w3.org/2000/svg" xmlns:xlink="http://www.w3.org/1999/xlink" x="0px" y="0px"
	 viewBox="0 0 556.2 707.4" style="enable-background:new 0 0 556.2 707.4;" xml:space="preserve">
<style type="text/css">
	.st0{fill:url(#path4164_00000106832449348918406740000003808277843588207256_);}
	.st1{fill-rule:evenodd;clip-rule:evenodd;fill:url(#path4201_00000071543426660885322520000015074111012984951742_);}
	.st2{fill-rule:evenodd;clip-rule:evenodd;fill:url(#path3342_00000161589747530615072150000004430013183978763953_);}
	.st3{fill-rule:evenodd;clip-rule:evenodd;fill:#808080;}
	.st4{fill-rule:evenodd;clip-rule:evenodd;}
	.st5{fill:#565854;}
	.st6{fill:#010101;}
	.st7{fill-rule:evenodd;clip-rule:evenodd;fill:#65251E;}
	.st8{fill-rule:evenodd;clip-rule:evenodd;fill:#010101;stroke:#010101;}
	.st9{fill:#808080;}
	.st10{fill-rule:evenodd;clip-rule:evenodd;fill:#181819;}
	.st11{fill:#FFFFFF;}
	.st12{fill:#AEABD2;}
	.st13{fill:#7673B2;}
</style>
<g id="layer1">
	
		<linearGradient id="path4164_00000148624570042612269110000008607529999482350744_" gradientUnits="userSpaceOnUse" x1="268.1977" y1="487.69" x2="274.2977" y2="6.75" gradientTransform="matrix(1 0 0 1 0 -57)">
		<stop  offset="0" style="stop-color:#C45782"/>
		<stop  offset="1" style="stop-color:#25468B"/>
	</linearGradient>
	
		<circle id="path4164" style="fill:url(#path4164_00000148624570042612269110000008607529999482350744_);" cx="270.2" cy="273.6" r="264.7"/>
	
		<linearGradient id="path4201_00000078029443708625377560000000285637113052246435_" gradientUnits="userSpaceOnUse" x1="444.8199" y1="551.3903" x2="437.2099" y2="314.5303" gradientTransform="matrix(1 0 0 1 0 -57)">
		<stop  offset="0" style="stop-color:#A976B1"/>
		<stop  offset="1" style="stop-color:#F08330"/>
	</linearGradient>
	
		<path id="path4201" style="fill-rule:evenodd;clip-rule:evenodd;fill:url(#path4201_00000078029443708625377560000000285637113052246435_);" d="
		M423.3,380.3l38.1,15.7l15.8-6l20.3,9.3l-14.6,24.8l-53.7,55.5l-43.1-79.8L423.3,380.3L423.3,380.3z"/>
	
		<linearGradient id="path3342_00000178899663825699859720000013556886229711988627_" gradientUnits="userSpaceOnUse" x1="246.5524" y1="284.699" x2="224.8824" y2="444.799" gradientTransform="matrix(1 0 0 1 0 -57)">
		<stop  offset="0" style="stop-color:#DDA221"/>
		<stop  offset="1" style="stop-color:#EBB4B4"/>
	</linearGradient>
	
		<path id="path3342" style="fill-rule:evenodd;clip-rule:evenodd;fill:url(#path3342_00000178899663825699859720000013556886229711988627_);" d="
		M177,199.4c-41.5-3.5-119,53.8-153.8,108.8c17,124.9,122.4,218,247,218.2c56.7,0,111.6-19.6,155.9-55.4c-4.8-37-21.3-72-62.9-119.9
		C312.4,291.8,234.5,209,177,199.4L177,199.4z"/>
	<path id="path3453" class="st3" d="M270.2,0C121,0,0,122.5,0,273.6s121,273.6,270.2,273.6s270.2-122.5,270.2-273.6
		C540.4,122.5,419.4,0,270.2,0z M270.2,22.4c137,0,248.1,112.5,248.1,251.2l0,0c0,138.8-111.1,251.2-248.1,251.2l0,0
		c-137,0-248.1-112.5-248.1-251.2S133.2,22.4,270.2,22.4L270.2,22.4z"/>
	<path id="path3481" class="st4" d="M260,104.6c-8.1,0.1-16.6,0.7-25.6,2c-64.6,9.5-106,35-159,99c-21.5,26-40.6,57.3-54.2,81.4
		c0.5,8.9,1.4,17.7,2.8,26.5c37.2-51.5,140.8-127.6,164.1-94.1c26.7,38.4-50.2,91.8-39.9,106.4c11.1,15.6,59.5-9.1,104.5-12.4
		c50.2-3.6,76.9,11.9,110.4,37.7c-8.5-15.9-14-27.6-17.2-39c-6.7-23.8,11.1-45.8,17.8-58.8c10.6-20.7,19.5-49.4,35.3-65
		c27.6-27.2,75.7-41.3,118.2-55.4c13.3-4.4,25.1-3.5,39-6.5c-12.9-7.2-29-9.8-42.1-10c-70-1-112.6,9.6-140.9,6.5
		C337.4,119,303.9,104.1,260,104.6L260,104.6z"/>
	
		<ellipse id="path3485" transform="matrix(0.1973 -0.9803 0.9803 0.1973 41.5026 411.6718)" class="st5" cx="272.1" cy="180.5" rx="18.3" ry="18.5"/>
	
		<ellipse id="ellipse3487" transform="matrix(0.1973 -0.9803 0.9803 0.1973 42.8487 414.9932)" class="st6" cx="274.8" cy="181.3" rx="16.6" ry="16.8"/>
	<path id="path4068" class="st7" d="M336.7,189.1c14.8-7.7,22-14.1,56.7-22.8c33.6-8.4,75.5-28.7,109.1-36.6
		C444.9,136.7,375.5,151.2,336.7,189.1L336.7,189.1L336.7,189.1z"/>
	<path id="path4152" class="st8" d="M93.5,348c-11.9-0.2-40.4,12.7-55,19.4c7.3,18.3,16.7,35.6,28,51.7
		c8.4-35.5,37.5-60.1,31.9-69.2C97.6,348.6,95.9,348.1,93.5,348z"/>
	<g id="text4154">
		<path id="path4218" class="st9" d="M246.4,623.7l-40.8,83.6h6.1l41.3-83.6H246.4z M44.8,625.2c-10.6,0-19.1,3.7-25.4,11.1
			c-6.3,7.3-9.5,16.7-9.5,28.1s2.8,20.8,8.5,28.4s13.5,11.4,23.6,11.4c2.3,0,6.6-0.3,12.7-1.4l9.5,0c1.3,0,2.4-0.1,3.3,0.2v-38.5
			H42.1v5.3h19v26.9c-2.2,1.1-4.5,0.1-6.9,0.7c-3.5,0.9-7.3,1.4-11.2,1.4c-8.8,0-15.5-3.2-20-9.5c-4.5-6.4-6.7-14.7-6.7-24.8
			c0-9.4,2.6-17.4,7.8-24c5.2-6.7,12.1-10,20.4-10c6.1,0,12.4,1.2,18.8,3.7l1.9-5.1C59.5,626.5,52.7,625.2,44.8,625.2L44.8,625.2z
			 M79.2,626.5v76.2h6.4v-67.4l40.3,67.4h6.6v-76.2h-6.4v65.9l-39.7-65.9C86.5,626.5,79.2,626.5,79.2,626.5z M143.6,626.5v44.1
			c0,22.4,9.5,33.6,28.6,33.6s28.6-11.2,28.6-33.6v-44.1h-6.4v43.8c0,9-1.8,16-5.4,21.1c-3.6,5-9.2,7.5-16.8,7.5s-13.2-2.5-16.8-7.5
			c-3.6-5-5.4-12.1-5.4-21.1v-43.8H143.6L143.6,626.5z M267.3,626.5v76.2H311v-5.3h-37.4v-70.9L267.3,626.5L267.3,626.5z
			 M319.1,626.5v76.2h6.4v-76.2H319.1z M339.2,626.5v76.2h6.4v-67.4l40.3,67.4h6.6v-76.2h-6.4v65.9l-39.7-65.9H339.2L339.2,626.5z
			 M404.4,626.5v44.1c0,22.4,9.5,33.6,28.6,33.6s28.6-11.2,28.6-33.6v-44.1h-6.4v43.8c0,9-1.8,16-5.4,21.1c-3.6,5-9.2,7.5-16.8,7.5
			s-13.2-2.5-16.8-7.5c-3.6-5-5.4-12.1-5.4-21.1v-43.8H404.4L404.4,626.5z M470.1,626.5l26,37.1l-27,39.1h7.3l23.3-34.4l23.4,34.4
			h7.3l-27-39.1l26-37.1h-7.5l-22.1,33.3l-22-33.3H470.1L470.1,626.5z"/>
	</g>
	<path id="path4179" class="st10" d="M409.2,161.8c30.1-8.4,82.1-28.9,120-33.7c-7-1.3-19.6,0.8-26.6,1.6
		C465.1,137.1,428.6,152.1,409.2,161.8L409.2,161.8L409.2,161.8z"/>
	<circle id="path4181" class="st11" cx="207.2" cy="70.4" r="3.5"/>
	<circle id="circle4187" class="st12" cx="227.4" cy="57.7" r="2.5"/>
	<circle id="circle4213" class="st13" cx="380.3" cy="92.1" r="2.5"/>
</g>
</svg>
